<svg width="156" height="24" viewBox="0 0 156 24" fill="none" xmlns="http://www.w3.org/2000/svg">
<path d="M11.1709 3.62305L13.3583 8.98456L19.1387 9.41273L14.708 13.1546L16.0949 18.7768L11.1709 15.7237L6.2469 18.7768L7.63382 13.1546L3.20312 9.41273L8.9835 8.98456L11.1709 3.62305Z" fill="#FFFF3F"/>
<path d="M11.1709 3.62305L8.9835 8.98456L3.20312 9.41273L7.63382 13.1546L6.2469 18.7768L11.1709 15.7237M11.1709 3.62305L13.3583 8.98456L19.1387 9.41273L14.708 13.1546L16.0949 18.7768L11.1709 15.7237" stroke="#E1E135" stroke-width="1.86164" stroke-linecap="round" stroke-linejoin="round"/>
<path d="M44.5069 3.62305L46.6943 8.98456L52.4747 9.41273L48.044 13.1546L49.4309 18.7768L44.5069 15.7237L39.5828 18.7768L40.9698 13.1546L36.5391 9.41273L42.3194 8.98456L44.5069 3.62305Z" fill="#FFFF3F"/>
<path d="M44.5069 3.62305L42.3194 8.98456L36.5391 9.41273L40.9698 13.1546L39.5828 18.7768L44.5069 15.7237M44.5069 3.62305L46.6943 8.98456L52.4747 9.41273L48.044 13.1546L49.4309 18.7768L44.5069 15.7237" stroke="#E1E135" stroke-width="1.86164" stroke-linecap="round" stroke-linejoin="round"/>
<path d="M77.8506 3.62305L80.038 8.98456L85.8184 9.41273L81.3877 13.1546L82.7746 18.7768L77.8506 15.7237L72.9266 18.7768L74.3135 13.1546L69.8828 9.41273L75.6632 8.98456L77.8506 3.62305Z" fill="#FFFF3F"/>
<path d="M77.8506 3.62305L75.6632 8.98456L69.8828 9.41273L74.3135 13.1546L72.9266 18.7768L77.8506 15.7237M77.8506 3.62305L80.038 8.98456L85.8184 9.41273L81.3877 13.1546L82.7746 18.7768L77.8506 15.7237" stroke="#E1E135" stroke-width="1.86164" stroke-linecap="round" stroke-linejoin="round"/>
<path d="M111.187 3.62305L113.374 8.98456L119.154 9.41273L114.724 13.1546L116.111 18.7768L111.187 15.7237L106.263 18.7768L107.649 13.1546L103.219 9.41273L108.999 8.98456L111.187 3.62305Z" fill="#FFFF3F"/>
<path d="M111.187 3.62305L108.999 8.98456L103.219 9.41273L107.649 13.1546L106.263 18.7768L111.187 15.7237M111.187 3.62305L113.374 8.98456L119.154 9.41273L114.724 13.1546L116.111 18.7768L111.187 15.7237" stroke="#E1E135" stroke-width="1.86164" stroke-linecap="round" stroke-linejoin="round"/>
<path d="M144.522 3.62305L146.71 8.98456L152.49 9.41273L148.06 13.1546L149.447 18.7768L144.522 15.7237L139.598 18.7768L140.985 13.1546L136.555 9.41273L142.335 8.98456L144.522 3.62305Z" fill="#FFFF3F"/>
<path d="M144.522 3.62305L142.335 8.98456L136.555 9.41273L140.985 13.1546L139.598 18.7768L144.522 15.7237M144.522 3.62305L146.71 8.98456L152.49 9.41273L148.06 13.1546L149.447 18.7768L144.522 15.7237" stroke="#E1E135" stroke-width="1.86164" stroke-linecap="round" stroke-linejoin="round"/>
</svg>
