<svg width="121" height="58" viewBox="0 0 121 58" fill="none" xmlns="http://www.w3.org/2000/svg">
<path d="M7.63847 20.2574L18.8545 14.6011C19.1123 14.4399 19.3057 14.2949 19.4346 14.166C19.5635 14.037 19.628 13.8114 19.628 13.4891V6.47914C19.628 5.96347 19.3701 5.70563 18.8545 5.70563H3.38413V0.436049L17.4041 0.194326C20.4659 0.129867 22.6253 0.822808 23.8823 2.27315C25.1393 3.69126 25.7678 5.6734 25.7678 8.21955V13.1024C25.7678 14.8428 25.3488 16.1642 24.5108 17.0666C23.705 17.9691 22.3997 18.8876 20.5949 19.8223L9.71729 25.2853C9.26608 25.5109 8.97601 25.7687 8.84709 26.0588C8.71817 26.3488 8.65371 26.7839 8.65371 27.3641V33.5039H25.6227V38.7734H2.56227V27.3641C2.56227 25.8493 2.73954 24.689 3.09406 23.8833C3.48082 23.0775 4.04484 22.4168 4.78613 21.9011C5.55965 21.3854 6.51043 20.8375 7.63847 20.2574ZM32.2497 7.68776C32.2497 5.01269 32.9427 3.06278 34.3285 1.83805C35.7467 0.613313 37.9222 0.000946228 40.8551 0.000946228H48.6386C51.5393 0.000946228 53.6987 0.613313 55.1168 1.83805C56.5349 3.06278 57.244 5.01269 57.244 7.68776V31.5701C57.244 34.2129 56.5349 36.1467 55.1168 37.3714C53.6987 38.5962 51.5393 39.2085 48.6386 39.2085H40.8551C37.9222 39.2085 35.7467 38.5962 34.3285 37.3714C32.9427 36.1467 32.2497 34.2129 32.2497 31.5701V7.68776ZM39.1147 5.4639C38.6635 5.4639 38.4379 5.6734 38.4379 6.09238V33.1171C38.4379 33.5361 38.6635 33.7456 39.1147 33.7456H50.379C50.8302 33.7456 51.0558 33.5361 51.0558 33.1171V6.09238C51.0558 5.6734 50.8302 5.4639 50.379 5.4639H39.1147ZM86.1254 38.7734H64.8054V33.8423H73.3624V6.8659L65.3372 11.7487L62.8232 7.54273L73.8458 0.436049H79.4538V33.8423H86.1254V38.7734ZM106.818 38.7734V30.1197H88.5918V25.7687L99.566 5.65728C100.243 4.36809 100.855 3.33674 101.403 2.56322C101.951 1.75747 102.644 1.17734 103.482 0.822808C104.352 0.436049 105.545 0.258784 107.059 0.291014L112.861 0.436049V24.9952H118.565V30.1197H112.861V38.7734H106.818ZM104.691 6.28576L94.6348 24.9952H106.818V5.65728H105.561C105.335 5.65728 105.174 5.70563 105.077 5.80232C104.981 5.89901 104.852 6.06016 104.691 6.28576Z" fill="white"/>
<path d="M5.20902 57.6082C3.52652 57.6082 2.17379 57.3928 1.15083 56.9621V55.0238C1.72961 55.2392 2.34877 55.4142 3.00831 55.5488C3.68131 55.6834 4.34758 55.7507 5.00712 55.7507C6.04354 55.7507 6.81749 55.6295 7.32897 55.3872C7.85391 55.145 8.11638 54.6604 8.11638 53.9336C8.11638 53.4894 8.0087 53.1327 7.79334 52.8635C7.57798 52.5943 7.22129 52.3655 6.72327 52.177C6.22525 51.9751 5.53879 51.7665 4.66389 51.5511C3.26405 51.1877 2.28147 50.7301 1.71615 50.1782C1.15083 49.6129 0.86817 48.839 0.86817 47.8564C0.86817 46.7123 1.28543 45.8172 2.11995 45.1711C2.95447 44.525 4.19952 44.202 5.8551 44.202C6.60886 44.202 7.31551 44.2558 7.97505 44.3635C8.64805 44.4712 9.17299 44.5923 9.54987 44.7269V46.6652C8.52691 46.2748 7.39627 46.0797 6.15795 46.0797C5.18883 46.0797 4.43507 46.2075 3.89667 46.4633C3.35827 46.719 3.08907 47.1834 3.08907 47.8564C3.08907 48.2467 3.18329 48.563 3.37173 48.8053C3.56017 49.0476 3.88321 49.2562 4.34085 49.4312C4.81195 49.6062 5.45803 49.8013 6.27909 50.0167C7.34243 50.2859 8.16349 50.6089 8.74227 50.9858C9.33451 51.3492 9.74504 51.78 9.97386 52.278C10.2161 52.7625 10.3373 53.3144 10.3373 53.9336C10.3373 55.0777 9.91329 55.9795 9.06531 56.639C8.21733 57.2851 6.9319 57.6082 5.20902 57.6082ZM12.4711 57.4062V44.4039H14.6718V57.4062H12.4711ZM17.2229 57.4062V44.4039H19.1611L25.9449 53.9739V44.4039H28.1255V57.4062H26.1872L19.4236 47.8564V57.4062H17.2229ZM36.7868 57.6082C34.6467 57.6082 33.0247 57.0226 31.921 55.8516C30.8308 54.6806 30.2856 53.099 30.2856 51.107C30.2856 49.6802 30.5145 48.4553 30.9721 47.4324C31.4432 46.396 32.1566 45.6018 33.1122 45.05C34.0679 44.4846 35.286 44.202 36.7666 44.202C37.5204 44.202 38.2068 44.2626 38.826 44.3837C39.4586 44.4914 40.0441 44.6394 40.5825 44.8279V46.7459C40.0441 46.5306 39.4654 46.369 38.8462 46.2614C38.2405 46.1402 37.6011 46.0797 36.9281 46.0797C35.3129 46.0797 34.1688 46.5104 33.4958 47.3718C32.8363 48.2333 32.5065 49.4783 32.5065 51.107C32.5065 52.6279 32.87 53.7855 33.5968 54.5796C34.3236 55.3603 35.4475 55.7507 36.9685 55.7507C37.5877 55.7507 38.2068 55.7036 38.826 55.6093C39.4586 55.5017 40.0509 55.3401 40.6027 55.1248V57.063C40.0643 57.238 39.4788 57.3726 38.8462 57.4668C38.227 57.561 37.5406 57.6082 36.7868 57.6082ZM42.7364 57.4062V44.4039H51.8017V46.12H44.9371V50.0571H51.0547V51.753H44.9371V55.7103H51.8017V57.4062H42.7364Z" fill="white"/>
</svg>
