<svg width="42" height="42" viewBox="0 0 42 42" fill="none" xmlns="http://www.w3.org/2000/svg">
<circle cx="21" cy="21" r="21" fill="#A9781E"/>
<path d="M22.0408 29.2438C19.4564 29.2438 17.5059 28.5449 16.1893 27.147C14.889 25.7492 14.2389 23.8556 14.2389 21.4663C14.2389 19.7434 14.5233 18.2561 15.0922 17.0046C15.6611 15.7368 16.5225 14.7615 17.6766 14.0789C18.8469 13.3962 20.326 13.0549 22.1139 13.0549C23.0404 13.0549 23.8775 13.1199 24.6251 13.2499C25.3891 13.3637 26.1043 13.5343 26.7707 13.7619V16.0537C25.4378 15.5661 23.9587 15.3223 22.3333 15.3223C20.3341 15.3223 18.9281 15.8505 18.1154 16.907C17.319 17.9636 16.9208 19.4833 16.9208 21.4663C16.9208 23.2705 17.3434 24.6439 18.1886 25.5867C19.0338 26.5294 20.3422 27.0008 22.1139 27.0008C23.5117 27.0008 24.6414 26.8382 25.5029 26.5131V22.1246H21.5775V20.3935H27.7703V27.9516C27.2664 28.2767 26.5431 28.5774 25.6004 28.8537C24.6739 29.1138 23.4874 29.2438 22.0408 29.2438Z" fill="white"/>
</svg>
