<svg width="42" height="42" viewBox="0 0 42 42" fill="none" xmlns="http://www.w3.org/2000/svg">
<circle cx="21" cy="21" r="21" fill="#647AD1"/>
<path d="M15.8455 29V13.2987H22.8429C24.0457 13.2987 25.0371 13.5262 25.8173 13.9813C26.5975 14.4364 27.1745 15.0622 27.5484 15.8587C27.9222 16.6389 28.1091 17.5328 28.1091 18.5406C28.1091 20.101 27.6215 21.3525 26.6463 22.2952C25.6873 23.238 24.387 23.7093 22.7453 23.7093H18.503V29H15.8455ZM18.503 21.6126H22.2577C23.3142 21.6126 24.1107 21.3363 24.647 20.7836C25.1834 20.231 25.4516 19.4833 25.4516 18.5406C25.4516 17.5328 25.1916 16.7526 24.6714 16.2C24.1676 15.6474 23.4036 15.371 22.3796 15.371H18.503V21.6126Z" fill="white"/>
</svg>
