<svg width="45" height="45" viewBox="0 0 45 45" fill="none" xmlns="http://www.w3.org/2000/svg">
<g clip-path="url(#clip0_2712_352)">
<rect width="45" height="45" rx="22.5" fill="white"/>
<path d="M15.6743 1.4811C11.1781 3.04087 7.30055 6.00137 4.61127 9.92775C1.92198 13.8541 0.562675 18.5394 0.733011 23.2954C0.903346 28.0514 2.59434 32.6275 5.55762 36.3514C8.5209 40.0754 12.6003 42.7509 17.1965 43.985C20.9228 44.9465 24.8269 44.9887 28.5731 44.1081C31.9668 43.3458 35.1044 41.7152 37.6786 39.376C40.3578 36.8671 42.3024 33.6754 43.3036 30.144C44.3917 26.3038 44.5854 22.2652 43.8696 18.3385H22.9446V27.0186H35.0629C34.8207 28.403 34.3017 29.7243 33.537 30.9035C32.7722 32.0826 31.7774 33.0954 30.6122 33.8811C29.1324 34.86 27.4643 35.5186 25.7149 35.8147C23.9604 36.1409 22.1608 36.1409 20.4063 35.8147C18.6281 35.447 16.9459 34.7131 15.4668 33.6596C13.0908 31.9777 11.3067 29.5883 10.3692 26.8323C9.4158 24.0247 9.4158 20.9809 10.3692 18.1733C11.0365 16.2053 12.1398 14.4135 13.5965 12.9315C15.2636 11.2044 17.3742 9.96992 19.6967 9.3634C22.0192 8.75688 24.4639 8.8018 26.7625 9.49321C28.5582 10.0444 30.2003 11.0075 31.5579 12.3057C32.9243 10.9463 34.2883 9.58345 35.6501 8.21704C36.3532 7.48227 37.1196 6.78266 37.8122 6.03032C35.7399 4.10192 33.3075 2.60138 30.6543 1.6147C25.8228 -0.139637 20.5363 -0.186783 15.6743 1.4811Z" fill="white"/>
<path d="M17.9657 8.51611C21.1999 7.4058 24.7168 7.43633 27.9312 8.60264C29.6965 9.26349 31.3139 10.2665 32.6906 11.5542C32.2228 12.0547 31.7293 12.5224 31.2522 13.0089C30.3448 13.9147 29.4381 14.8175 28.5322 15.7172C27.6291 14.8535 26.5367 14.2128 25.3422 13.8461C23.8135 13.3846 22.1872 13.353 20.6418 13.7548C19.0963 14.1566 17.6914 14.9764 16.5812 16.1241C15.6121 17.11 14.8781 18.302 14.4342 19.6112L9.58594 15.8575C11.3213 12.4161 14.326 9.78377 17.9657 8.51611Z" fill="#E33629"/>
<path d="M8.29781 19.5721C8.5584 18.2807 8.99103 17.03 9.58413 15.8535L14.4324 19.6166C13.7981 21.4843 13.7981 23.5092 14.4324 25.3769C12.8171 26.6243 11.201 27.8779 9.58413 29.1377C8.09937 26.1822 7.64654 22.8148 8.29781 19.5721Z" fill="#F8BD00"/>
<path d="M22.7979 19.7266H36.7182C37.1944 22.3388 37.0656 25.0254 36.3417 27.5801C35.6757 29.9294 34.382 32.0526 32.5997 33.7217C31.035 32.5009 29.4634 31.2894 27.8988 30.0686C28.6745 29.5453 29.3366 28.8709 29.8453 28.0856C30.3541 27.3003 30.6991 26.4204 30.8596 25.4986H22.7979C22.7956 23.5762 22.7979 21.6514 22.7979 19.7266Z" fill="#587DBD"/>
<path d="M9.57812 29.1377C11.195 27.8903 12.8111 26.6368 14.4264 25.377C15.0513 27.211 16.2399 28.8007 17.8223 29.9188C18.8092 30.6164 19.9307 31.1007 21.1152 31.3408C22.2824 31.5578 23.4796 31.5578 24.6468 31.3408C25.8105 31.1438 26.9202 30.7057 27.9047 30.0545C29.4693 31.2753 31.0409 32.4868 32.6056 33.7076C30.8933 35.2646 28.8061 36.3501 26.5482 36.8579C24.056 37.4438 21.4588 37.4157 18.9799 36.7761C17.0194 36.2526 15.1881 35.3298 13.6008 34.0654C11.9208 32.7316 10.5486 31.0507 9.57812 29.1377Z" fill="#319F43"/>
</g>
<defs>
<clipPath id="clip0_2712_352">
<rect width="45" height="45" rx="22.5" fill="white"/>
</clipPath>
</defs>
</svg>
