<svg width="32" height="32" viewBox="0 0 32 32" fill="none" xmlns="http://www.w3.org/2000/svg">
<path d="M25.3333 17.3333V25.3333C25.3333 26.0406 25.0524 26.7189 24.5523 27.219C24.0522 27.719 23.3739 28 22.6667 28H6.66667C5.95942 28 5.28115 27.719 4.78105 27.219C4.28095 26.7189 4 26.0406 4 25.3333V9.33333C4 8.62609 4.28095 7.94781 4.78105 7.44772C5.28115 6.94762 5.95942 6.66667 6.66667 6.66667H14.6667V9.33333H6.66667V25.3333H22.6667V17.3333H25.3333ZM17.3333 4V6.66667H23.448L13.0573 17.0573L14.9427 18.9427L25.3333 8.552V14.6667H28V4H17.3333Z" fill="white"/>
</svg>
